<svg width="24" height="24" viewBox="0 0 24 24" fill="none" xmlns="http://www.w3.org/2000/svg">
<path d="M8.5 5.5C8.5 3.567 10.067 2 12 2C13.933 2 15.5 3.567 15.5 5.5V11.5C15.5 13.433 13.933 15 12 15C10.067 15 8.5 13.433 8.5 11.5V5.5Z" fill="black"/>
<path fill-rule="evenodd" clip-rule="evenodd" d="M6 11.5V12C6 15.3137 8.68629 18 12 18C15.3137 18 18 15.3137 18 12V11.5H19V12C19 15.866 15.866 19 12 19C8.13401 19 5 15.866 5 12V11.5H6Z" fill="black"/>
<path d="M11 18H13V22H11V18Z" fill="black"/>
</svg>
