<svg width="24" height="24" viewBox="0 0 24 24" fill="none" xmlns="http://www.w3.org/2000/svg">
<path fill-rule="evenodd" clip-rule="evenodd" d="M2 9.5H7.5V21.5H2V9.5ZM3 10.5V20.5H6.5V10.5H3Z" fill="black"/>
<path fill-rule="evenodd" clip-rule="evenodd" d="M16.1003 4.38456C16.4779 3.3776 15.2174 2.56588 14.4569 3.32634L7.5 10.2832V20.5001H16.7086C17.836 20.5001 18.8239 19.7456 19.1205 18.6579L20.8286 12.3948C21.0889 11.4406 20.3706 10.5001 19.3815 10.5001H14.5285C14.3645 10.5001 14.2109 10.4197 14.1175 10.2849C14.0241 10.1501 14.0028 9.9781 14.0603 9.82456L16.1003 4.38456ZM6.84413 9.52489L13.7498 2.61923C15.2707 1.09833 17.7919 2.72175 17.0367 4.73569L15.25 9.50012H19.3815C21.0299 9.50012 22.2271 11.0676 21.7934 12.6579L20.0853 18.921C19.67 20.4437 18.2869 21.5001 16.7086 21.5001H7C6.72386 21.5001 6.5 21.2763 6.5 21.0001V10.0001C6.5 9.7784 6.64431 9.59039 6.84413 9.52489Z" fill="black"/>
</svg>
