<svg width="128" height="29" viewBox="0 0 128 29" fill="none" xmlns="http://www.w3.org/2000/svg">
<g clip-path="url(#clip0_35_2439)">
<path d="M39.9725 4.4825C39.738 3.61602 39.2807 2.82609 38.6459 2.19139C38.0112 1.55669 37.2212 1.09938 36.3547 0.865C33.1825 0 20.4165 0 20.4165 0C20.4165 0 7.64997 0.02625 4.47822 0.89125C3.61178 1.12567 2.82187 1.583 2.18717 2.2177C1.55247 2.85239 1.09514 3.6423 0.860723 4.50875C-0.0987775 10.145 -0.471027 18.7327 0.886973 24.1432C1.12139 25.0097 1.57872 25.7996 2.21342 26.4343C2.84812 27.069 3.63803 27.5263 4.50447 27.7607C7.67647 28.6257 20.4427 28.6257 20.4427 28.6257C20.4427 28.6257 33.209 28.6257 36.381 27.7607C37.2474 27.5263 38.0373 27.069 38.672 26.4343C39.3067 25.7996 39.7641 25.0097 39.9985 24.1432C41.0102 18.4992 41.3222 9.91675 39.9722 4.48275" fill="#FF0000"/>
<path d="M16.3535 20.4479L26.944 14.3139L16.3535 8.17969V20.4479Z" fill="white"/>
<path d="M122.81 8.3097C124.199 8.3097 125.248 8.5717 125.982 9.0697C126.716 9.56787 127.24 10.3544 127.555 11.4292C127.869 12.504 128 13.9717 128 15.8592V18.9265H121.263V19.87L121.368 22.4652C121.447 23.042 121.578 23.4615 121.788 23.7235C121.998 23.9857 122.338 24.1167 122.784 24.1167C123.387 24.1167 123.806 23.881 124.016 23.4092C124.252 22.9372 124.357 22.1507 124.383 21.076L127.869 21.2857C127.895 21.443 127.896 21.6527 127.896 21.9147C127.896 23.5662 127.45 24.7985 126.532 25.611C125.615 26.4235 124.357 26.843 122.705 26.843C120.713 26.843 119.324 26.214 118.537 24.982C117.751 23.7497 117.331 21.8097 117.331 19.2147V16.0427C117.42 11.5865 118.204 8.3227 122.81 8.3097ZM74.34 8.65045V21.7837C74.34 22.5702 74.4185 23.147 74.602 23.4877C74.9743 24.2165 75.939 24.0302 76.4633 23.6712C76.7658 23.4665 77.0098 23.1865 77.171 22.8587V8.6502H81.1818V26.5545H78.036L77.6953 24.3525H77.6167C76.7517 26.004 75.467 26.8427 73.7632 26.8427C71.1407 26.8362 70.499 24.9467 70.3462 23.0277L70.3363 22.8925C70.3173 22.6018 70.3063 22.3107 70.303 22.0195V8.65045H74.34ZM95.023 8.65045V21.7837C95.023 22.5702 95.1015 23.147 95.285 23.4877C95.6575 24.2165 96.622 24.0302 97.1463 23.6712C97.4488 23.4665 97.6928 23.1865 97.854 22.8587V8.6502H101.865V26.5545H98.719L98.3783 24.3525H98.2998C97.4348 26.004 96.15 26.8427 94.4463 26.8427C91.8238 26.8362 91.182 24.9467 91.0293 23.0277L91.0193 22.8925C91.0003 22.6018 90.9893 22.3107 90.986 22.0195V8.65045H95.023ZM62.7008 8.3097C64.0115 8.3097 65.0863 8.5717 65.8728 9.1222C66.659 9.6727 67.262 10.5117 67.629 11.665C67.996 12.8185 68.1795 14.365 68.1795 16.2787V18.8737C68.1795 20.7875 67.996 22.308 67.629 23.4612C67.262 24.615 66.6853 25.4537 65.8728 26.0042C65.0603 26.5285 63.959 26.8167 62.596 26.8167C61.1803 26.843 60.0793 26.5547 59.2668 26.0305C58.4543 25.48 57.8773 24.641 57.5368 23.4877C57.1958 22.3342 57.0385 20.8137 57.0385 18.9002V16.3047C57.0385 14.391 57.222 12.8182 57.6152 11.6647C58.0085 10.4852 58.6113 9.6462 59.4503 9.1222C60.289 8.5977 61.3638 8.30945 62.7008 8.30945M108.156 1.12695V10.564H108.182C108.549 9.88245 109.021 9.33195 109.677 8.91245C110.289 8.50109 111.01 8.28205 111.747 8.28345C112.717 8.28345 113.451 8.54545 114.002 9.04345C114.552 9.56795 114.946 10.3805 115.182 11.5077C115.41 12.5997 115.54 14.11 115.548 16.0145L115.549 16.2002V19.0312C115.549 21.6787 115.208 23.645 114.579 24.9032C113.924 26.1615 112.927 26.7907 111.564 26.7907C110.804 26.7907 110.122 26.6072 109.493 26.2665C108.937 25.9421 108.476 25.4772 108.156 24.9185L108.104 24.8245H108.025L107.606 26.5285H104.277V1.1272L108.156 1.12695ZM92.113 2.04445V5.2947H88.1285V26.5545H84.1965V5.29495H80.1857V2.0447L92.113 2.04445ZM48.8857 2.04445L48.8883 2.05445C48.9265 2.2247 49.4565 4.58095 50.0395 7.3262L50.0855 7.5437L50.155 7.87245L50.2015 8.0932L50.2248 8.20395L50.2713 8.42595L50.2945 8.5372L50.3408 8.75995L50.4083 9.0857C50.802 10.9867 51.1778 12.8932 51.4025 14.2602H51.5075C51.7227 13.034 52.0355 11.4647 52.369 9.86245L52.4565 9.44395C52.5003 9.23429 52.5445 9.02495 52.589 8.81595L52.6575 8.4917C53.1104 6.36841 53.5768 4.24804 54.0568 2.1307L54.0643 2.09695L54.0763 2.04445H58.087L53.447 18.5857V26.5285H49.4888V18.6117H49.4625L44.875 2.0442L48.8857 2.04445ZM62.622 11.0882C62.0715 11.0882 61.7045 11.3767 61.4688 11.9797C61.233 12.5827 61.128 13.5 61.128 14.7847V20.3682C61.128 21.679 61.2328 22.6487 61.4425 23.2257C61.6523 23.8024 62.0455 24.0907 62.622 24.0907C63.1725 24.0907 63.5658 23.8024 63.8018 23.2257C64.0378 22.6487 64.1425 21.679 64.1425 20.3682V14.7845C64.1425 13.5 64.0375 12.5562 63.8018 11.9795C63.5658 11.3767 63.1725 11.0882 62.622 11.0882ZM108.864 11.6127C108.545 11.9077 108.317 12.2715 108.182 12.7262L108.156 12.8185V22.9895C108.481 23.54 108.943 23.907 109.755 23.9332C110.175 23.9332 110.515 23.776 110.778 23.4615C111.04 23.147 111.223 22.6226 111.328 21.8885C111.429 21.184 111.481 20.2136 111.485 18.9775V16.4885C111.485 15.073 111.433 13.9982 111.354 13.238C111.249 12.4777 111.119 11.9272 110.883 11.6127C110.426 10.9572 109.441 10.9652 108.864 11.6127ZM122.732 11.0097C122.286 11.0359 121.971 11.167 121.788 11.403C121.578 11.665 121.447 12.0582 121.368 12.635C121.291 13.2 121.264 15.175 121.263 15.254V16.541H124.199V15.406V15.4277C124.197 15.8245 124.189 15.1975 124.171 14.4277L124.169 14.3242C124.152 13.6477 124.128 12.8935 124.094 12.635C124.016 12.032 123.885 11.6125 123.675 11.3767C123.465 11.1407 123.151 11.0097 122.731 11.0097" fill="#282828"/>
</g>
<defs>
<clipPath id="clip0_35_2439">
<rect width="128" height="29" fill="white"/>
</clipPath>
</defs>
</svg>
