<svg width="24" height="24" viewBox="0 0 24 24" fill="none" xmlns="http://www.w3.org/2000/svg">
<path fill-rule="evenodd" clip-rule="evenodd" d="M6.5 17C5.39543 17 4.5 17.8954 4.5 19C4.5 20.1046 5.39543 21 6.5 21C7.60457 21 8.5 20.1046 8.5 19C8.5 17.8954 7.60457 17 6.5 17ZM3.5 19C3.5 17.3431 4.84315 16 6.5 16C8.15685 16 9.5 17.3431 9.5 19C9.5 20.6569 8.15685 22 6.5 22C4.84315 22 3.5 20.6569 3.5 19Z" fill="black"/>
<path fill-rule="evenodd" clip-rule="evenodd" d="M18 2.35349V16H17V4.1465L9.5 8.77885V19H8.5V8.22113L18 2.35349Z" fill="black"/>
<path fill-rule="evenodd" clip-rule="evenodd" d="M15 14C13.8954 14 13 14.8954 13 16C13 17.1046 13.8954 18 15 18C16.1046 18 17 17.1046 17 16C17 14.8954 16.1046 14 15 14ZM12 16C12 14.3431 13.3431 13 15 13C16.6569 13 18 14.3431 18 16C18 17.6569 16.6569 19 15 19C13.3431 19 12 17.6569 12 16Z" fill="black"/>
<path fill-rule="evenodd" clip-rule="evenodd" d="M17.7628 6.67541L9.2628 11.9254L8.7373 11.0746L17.2373 5.82462L17.7628 6.67541Z" fill="black"/>
</svg>
