<svg width="24" height="24" viewBox="0 0 24 24" fill="none" xmlns="http://www.w3.org/2000/svg">
<path fill-rule="evenodd" clip-rule="evenodd" d="M16.9479 4.70988C16.1195 3.275 14.2847 2.78338 12.8498 3.6118L5.05558 8.1118C3.6207 8.94023 3.12908 10.775 3.9575 12.2099C4.38816 12.9558 5.08988 13.4466 5.86777 13.63C6.06728 13.677 6.21788 13.8411 6.2477 14.0439C6.27753 14.2467 6.18055 14.4472 6.00302 14.5496L4.8056 15.241C3.37072 16.0694 2.8791 17.9042 3.70752 19.3391C4.53595 20.7739 6.37072 21.2656 7.8056 20.4371L11.7027 18.1871C11.9419 18.0491 12.2477 18.131 12.3857 18.3701C12.5238 18.6093 12.4419 18.9151 12.2027 19.0532L8.3056 21.3032C6.39243 22.4077 3.94607 21.7522 2.8415 19.8391C1.73693 17.9259 2.39243 15.4795 4.3056 14.375L4.60453 14.2024C3.99481 13.8624 3.46588 13.3584 3.09148 12.7099C1.98691 10.7967 2.64241 8.35035 4.55558 7.24578L12.3498 2.74578C14.263 1.64121 16.7093 2.29671 17.8139 4.20988C18.9185 6.12305 18.263 8.56941 16.3498 9.67398L16.0509 9.84657C16.6606 10.1865 17.1895 10.6906 17.5639 11.3391C17.8077 11.7613 17.9661 12.2105 18.0438 12.666C18.0902 12.9382 17.9072 13.1965 17.6349 13.243C17.3627 13.2894 17.1044 13.1063 17.058 12.8341C16.9999 12.4937 16.8815 12.1571 16.6979 11.8391C16.2673 11.0931 15.5655 10.6024 14.7876 10.419C14.5881 10.3719 14.4375 10.2079 14.4077 10.0051C14.3779 9.80225 14.4749 9.60178 14.6524 9.49929L15.8498 8.80796C17.2847 7.97953 17.7763 6.14476 16.9479 4.70988Z" fill="black"/>
<path d="M13.5 12L9 14.5981L9 9.40192L13.5 12Z" fill="black"/>
<path d="M15 18H22V19H15V18Z" fill="black"/>
<path d="M19 15L19 22L18 22L18 15L19 15Z" fill="black"/>
</svg>
