<svg width="24" height="24" viewBox="0 0 24 24" fill="none" xmlns="http://www.w3.org/2000/svg">
<path fill-rule="evenodd" clip-rule="evenodd" d="M12 3C7.02944 3 3 7.02944 3 12C3 16.9706 7.02944 21 12 21C16.9706 21 21 16.9706 21 12C21 7.02944 16.9706 3 12 3ZM2 12C2 6.47715 6.47715 2 12 2C17.5228 2 22 6.47715 22 12C22 17.5228 17.5228 22 12 22C6.47715 22 2 17.5228 2 12Z" fill="black"/>
<path d="M13 17C13 17.5523 12.5523 18 12 18C11.4477 18 11 17.5523 11 17C11 16.4477 11.4477 16 12 16C12.5523 16 13 16.4477 13 17Z" fill="black"/>
<path fill-rule="evenodd" clip-rule="evenodd" d="M12 8.25C11.1716 8.25 10.5 8.92157 10.5 9.75V10H8.5V9.75C8.5 7.817 10.067 6.25 12 6.25C13.933 6.25 15.5 7.817 15.5 9.75V9.99264C15.5 10.7428 15.202 11.4622 14.6716 11.9926L13 13.6642V14.25H11V13.25C11 12.9848 11.1054 12.7304 11.2929 12.5429L13.2574 10.5784C13.4127 10.4231 13.5 10.2124 13.5 9.99264V9.75C13.5 8.92157 12.8284 8.25 12 8.25Z" fill="black"/>
</svg>
