<svg width="24" height="24" viewBox="0 0 24 24" fill="none" xmlns="http://www.w3.org/2000/svg">
<path d="M2.25832 10.2126C2.15502 8.96633 3.03549 7.94601 4.25226 7.6574L16.4913 4.75435C17.8308 4.43665 19.2119 5.07353 19.72 6.35295C20.1472 7.42892 20.6362 8.83004 21.0003 10.3652C21.3645 11.9003 21.5569 13.3718 21.6583 14.5251C21.779 15.8964 20.8311 17.0857 19.4916 17.4034L7.25254 20.3064C6.03577 20.5951 4.79084 20.0789 4.32342 18.919C3.92601 17.9328 3.44862 16.5271 2.99977 14.6348C2.55093 12.7425 2.34615 11.2722 2.25832 10.2126Z" fill="#C50B31" stroke="#3E3E3E" stroke-width="0.5"/>
<path d="M10.3 9.55551L15.4 12.5L10.3 15.4445L10.3 9.55551Z" fill="white" stroke="black" stroke-width="0.1"/>
</svg>
