<svg width="24" height="24" viewBox="0 0 24 24" fill="none" xmlns="http://www.w3.org/2000/svg">
<path d="M3.04917 8.02603C3.23628 6.78957 4.32847 6 5.579 6H18.1577C19.5343 6 20.7311 6.93844 20.9302 8.30058C21.0976 9.44611 21.25 10.9223 21.25 12.5C21.25 14.0777 21.0976 15.5539 20.9302 16.6994C20.7311 18.0616 19.5343 19 18.1577 19H5.579C4.32847 19 3.23628 18.2104 3.04917 16.974C2.89009 15.9227 2.75 14.4448 2.75 12.5C2.75 10.5552 2.89009 9.07731 3.04917 8.02603Z" fill="#F30032" stroke="#F30032" stroke-width="0.5"/>
<path d="M15.5 12.5L10.25 15.5311L10.25 9.46891L15.5 12.5Z" fill="white"/>
</svg>
